<svg stroke="#14102e" fill="#14102e" stroke-width="0" viewBox="0 0 512 512" height="48" width="48" xmlns="http://www.w3.org/2000/svg"><path fill="none" stroke-linecap="round" stroke-linejoin="round" stroke-width="32" d="M432 448L80 64"></path><path fill="none" stroke-linecap="round" stroke-linejoin="round" stroke-width="32" d="M255.66 384c-41.49 0-81.5-12.28-118.92-36.5-34.07-22-64.74-53.51-88.7-91v-.06c19.94-28.57 41.78-52.73 65.24-72.21C143.18 149.26 200 128 255.66 128c41.49 0 81.5 12.28 118.92 36.5 34.07 22 64.74 53.51 88.7 91v.06c-19.94 28.57-41.78 52.73-65.24 72.21C349.71 362.74 300 384 255.66 384z"></path><path fill="none" stroke-linecap="round" stroke-linejoin="round" stroke-width="32" d="M256 320a64 64 0 1164-64 64.07 64.07 0 01-64 64z"></path></svg>
